<svg width="23" height="23" viewBox="0 0 23 23" fill="none" xmlns="http://www.w3.org/2000/svg">
<rect width="1" height="1" transform="matrix(-1 0 0 1 9 0)" fill="#290029"/>
<rect width="1" height="1" transform="matrix(-1 0 0 1 10 0)" fill="#290029"/>
<rect width="1" height="1" transform="matrix(-1 0 0 1 11 0)" fill="#290029"/>
<rect width="1" height="1" transform="matrix(-1 0 0 1 12 0)" fill="#290029"/>
<rect width="1" height="1" transform="matrix(-1 0 0 1 13 0)" fill="#290029"/>
<rect width="1" height="1" transform="matrix(-1 0 0 1 14 0)" fill="#290029"/>
<rect width="1" height="1" transform="matrix(-1 0 0 1 15 1)" fill="#290029"/>
<rect width="1" height="1" transform="matrix(-1 0 0 1 16 2)" fill="#290029"/>
<rect width="1" height="1" transform="matrix(-1 0 0 1 17 1)" fill="#290029"/>
<rect width="1" height="1" transform="matrix(-1 0 0 1 18 1)" fill="#290029"/>
<rect width="1" height="1" transform="matrix(-1 0 0 1 19 2)" fill="#290029"/>
<rect width="1" height="1" transform="matrix(-1 0 0 1 18 3)" fill="#290029"/>
<rect width="1" height="1" transform="matrix(-1 0 0 1 18 4)" fill="#290029"/>
<rect width="1" height="1" transform="matrix(-1 0 0 1 17 5)" fill="#290029"/>
<rect width="1" height="1" transform="matrix(-1 0 0 1 17 6)" fill="#290029"/>
<rect width="1" height="1" transform="matrix(-1 0 0 1 17 7)" fill="#290029"/>
<rect width="1" height="1" transform="matrix(-1 0 0 1 17 8)" fill="#290029"/>
<rect width="1" height="1" transform="matrix(-1 0 0 1 18 8)" fill="#290029"/>
<rect width="1" height="1" transform="matrix(-1 0 0 1 19 8)" fill="#290029"/>
<rect width="1" height="1" transform="matrix(-1 0 0 1 20 8)" fill="#290029"/>
<rect width="1" height="1" transform="matrix(-1 0 0 1 21 7)" fill="#290029"/>
<rect width="1" height="1" transform="matrix(-1 0 0 1 22 8)" fill="#290029"/>
<rect width="1" height="1" transform="matrix(-1 0 0 1 23 9)" fill="#290029"/>
<rect width="1" height="1" transform="matrix(-1 0 0 1 23 10)" fill="#290029"/>
<rect width="1" height="1" transform="matrix(-1 0 0 1 23 11)" fill="#290029"/>
<rect width="1" height="1" transform="matrix(-1 0 0 1 22 12)" fill="#290029"/>
<rect width="1" height="1" transform="matrix(-1 0 0 1 21 12)" fill="#290029"/>
<rect width="1" height="1" transform="matrix(-1 0 0 1 20 12)" fill="#290029"/>
<rect width="1" height="1" transform="matrix(-1 0 0 1 19 12)" fill="#290029"/>
<rect width="1" height="1" transform="matrix(-1 0 0 1 18 12)" fill="#290029"/>
<rect width="1" height="1" transform="matrix(-1 0 0 1 17 12)" fill="#290029"/>
<rect width="1" height="1" transform="matrix(-1 0 0 1 16 13)" fill="#290029"/>
<rect width="1" height="1" transform="matrix(-1 0 0 1 16 14)" fill="#290029"/>
<rect width="1" height="1" transform="matrix(-1 0 0 1 16 15)" fill="#290029"/>
<rect width="1" height="1" transform="matrix(-1 0 0 1 16 16)" fill="#290029"/>
<rect width="1" height="1" transform="matrix(-1 0 0 1 17 17)" fill="#290029"/>
<rect width="1" height="1" transform="matrix(-1 0 0 1 18 18)" fill="#290029"/>
<rect width="1" height="1" transform="matrix(-1 0 0 1 18 19)" fill="#290029"/>
<rect width="1" height="1" transform="matrix(-1 0 0 1 19 19)" fill="#290029"/>
<rect width="1" height="1" transform="matrix(-1 0 0 1 20 20)" fill="#290029"/>
<rect width="1" height="1" transform="matrix(-1 0 0 1 21 20)" fill="#290029"/>
<rect width="1" height="1" transform="matrix(-1 0 0 1 22 21)" fill="#290029"/>
<rect width="1" height="1" transform="matrix(-1 0 0 1 22 22)" fill="#290029"/>
<rect width="1" height="1" transform="matrix(-1 0 0 1 21 22)" fill="#290029"/>
<rect width="1" height="1" transform="matrix(-1 0 0 1 20 22)" fill="#290029"/>
<rect width="1" height="1" transform="matrix(-1 0 0 1 19 22)" fill="#290029"/>
<rect width="1" height="1" transform="matrix(-1 0 0 1 18 22)" fill="#290029"/>
<rect width="1" height="1" transform="matrix(-1 0 0 1 17 22)" fill="#290029"/>
<rect width="1" height="1" transform="matrix(-1 0 0 1 16 22)" fill="#290029"/>
<rect width="1" height="1" transform="matrix(-1 0 0 1 15 22)" fill="#290029"/>
<rect width="1" height="1" transform="matrix(-1 0 0 1 14 22)" fill="#290029"/>
<rect width="1" height="1" transform="matrix(-1 0 0 1 14 21)" fill="#290029"/>
<rect width="1" height="1" transform="matrix(-1 0 0 1 14 20)" fill="#290029"/>
<rect width="1" height="1" transform="matrix(-1 0 0 1 13 19)" fill="#290029"/>
<rect width="1" height="1" transform="matrix(-1 0 0 1 12 18)" fill="#290029"/>
<rect width="1" height="1" transform="matrix(-1 0 0 1 11 19)" fill="#290029"/>
<rect width="1" height="1" transform="matrix(-1 0 0 1 10 20)" fill="#290029"/>
<rect width="1" height="1" transform="matrix(-1 0 0 1 10 21)" fill="#290029"/>
<rect width="1" height="1" transform="matrix(-1 0 0 1 10 22)" fill="#290029"/>
<rect width="1" height="1" transform="matrix(-1 0 0 1 9 22)" fill="#290029"/>
<rect width="1" height="1" transform="matrix(-1 0 0 1 8 22)" fill="#290029"/>
<rect width="1" height="1" transform="matrix(-1 0 0 1 7 22)" fill="#290029"/>
<rect width="1" height="1" transform="matrix(-1 0 0 1 6 22)" fill="#290029"/>
<rect width="1" height="1" transform="matrix(-1 0 0 1 5 22)" fill="#290029"/>
<rect width="1" height="1" transform="matrix(-1 0 0 1 4 22)" fill="#290029"/>
<rect width="1" height="1" transform="matrix(-1 0 0 1 3 22)" fill="#290029"/>
<rect width="1" height="1" transform="matrix(-1 0 0 1 2 22)" fill="#290029"/>
<rect width="1" height="1" transform="matrix(-1 0 0 1 1 22)" fill="#290029"/>
<rect width="1" height="1" transform="matrix(-1 0 0 1 1 21)" fill="#290029"/>
<rect width="1" height="1" transform="matrix(-1 0 0 1 2 20)" fill="#290029"/>
<rect width="1" height="1" transform="matrix(-1 0 0 1 3 20)" fill="#290029"/>
<rect width="1" height="1" transform="matrix(-1 0 0 1 4 19)" fill="#290029"/>
<rect width="1" height="1" transform="matrix(-1 0 0 1 5 19)" fill="#290029"/>
<rect width="1" height="1" transform="matrix(-1 0 0 1 5 18)" fill="#290029"/>
<rect width="1" height="1" transform="matrix(-1 0 0 1 6 17)" fill="#290029"/>
<rect width="1" height="1" transform="matrix(-1 0 0 1 7 16)" fill="#290029"/>
<rect width="1" height="1" transform="matrix(-1 0 0 1 7 15)" fill="#290029"/>
<rect width="1" height="1" transform="matrix(-1 0 0 1 7 14)" fill="#290029"/>
<rect width="1" height="1" transform="matrix(-1 0 0 1 7 13)" fill="#290029"/>
<rect width="1" height="1" transform="matrix(-1 0 0 1 6 13)" fill="#290029"/>
<rect width="1" height="1" transform="matrix(-1 0 0 1 6 14)" fill="#290029"/>
<rect width="1" height="1" transform="matrix(-1 0 0 1 6 15)" fill="#290029"/>
<rect width="1" height="1" transform="matrix(-1 0 0 1 5 16)" fill="#290029"/>
<rect width="1" height="1" transform="matrix(-1 0 0 1 4 16)" fill="#290029"/>
<rect width="1" height="1" transform="matrix(-1 0 0 1 3 16)" fill="#290029"/>
<rect width="1" height="1" transform="matrix(-1 0 0 1 2 15)" fill="#290029"/>
<rect width="1" height="1" transform="matrix(-1 0 0 1 2 14)" fill="#290029"/>
<rect width="1" height="1" transform="matrix(-1 0 0 1 2 13)" fill="#290029"/>
<rect width="1" height="1" transform="matrix(-1 0 0 1 2 12)" fill="#290029"/>
<rect width="1" height="1" transform="matrix(-1 0 0 1 3 11)" fill="#290029"/>
<rect width="1" height="1" transform="matrix(-1 0 0 1 3 10)" fill="#290029"/>
<rect width="1" height="1" transform="matrix(-1 0 0 1 4 9)" fill="#290029"/>
<rect width="1" height="1" transform="matrix(-1 0 0 1 5 9)" fill="#290029"/>
<rect width="1" height="1" transform="matrix(-1 0 0 1 6 8)" fill="#290029"/>
<rect width="1" height="1" transform="matrix(-1 0 0 1 7 8)" fill="#290029"/>
<rect width="1" height="1" transform="matrix(-1 0 0 1 7 7)" fill="#290029"/>
<rect width="1" height="1" transform="matrix(-1 0 0 1 6 6)" fill="#290029"/>
<rect width="1" height="1" transform="matrix(-1 0 0 1 6 5)" fill="#290029"/>
<rect width="1" height="1" transform="matrix(-1 0 0 1 7 4)" fill="#290029"/>
<rect width="1" height="1" transform="matrix(-1 0 0 1 7 3)" fill="#290029"/>
<rect width="1" height="1" transform="matrix(-1 0 0 1 7 2)" fill="#290029"/>
<rect width="1" height="1" transform="matrix(-1 0 0 1 8 1)" fill="#290029"/>
<rect width="1" height="1" transform="matrix(-1 0 0 1 8 9)" fill="#290029"/>
<rect width="1" height="1" transform="matrix(-1 0 0 1 9 10)" fill="#290029"/>
<rect width="1" height="1" transform="matrix(-1 0 0 1 10 11)" fill="#290029"/>
<rect width="1" height="1" transform="matrix(-1 0 0 1 11 11)" fill="#290029"/>
<rect width="1" height="1" transform="matrix(-1 0 0 1 12 11)" fill="#290029"/>
<rect width="1" height="1" transform="matrix(-1 0 0 1 13 11)" fill="#290029"/>
<rect width="1" height="1" transform="matrix(-1 0 0 1 14 11)" fill="#290029"/>
<rect width="1" height="1" transform="matrix(-1 0 0 1 15 10)" fill="#290029"/>
<rect width="1" height="1" transform="matrix(-1 0 0 1 16 9)" fill="#290029"/>
<rect width="1" height="1" transform="matrix(-1 0 0 1 14 9)" fill="#940094"/>
<rect width="1" height="1" transform="matrix(-1 0 0 1 13 9)" fill="#940094"/>
<rect width="1" height="1" transform="matrix(-1 0 0 1 12 9)" fill="#940094"/>
<rect width="1" height="1" transform="matrix(-1 0 0 1 11 9)" fill="#940094"/>
<rect width="1" height="1" transform="matrix(-1 0 0 1 10 8)" fill="#940094"/>
<rect width="1" height="1" transform="matrix(-1 0 0 1 12 7)" fill="#940094"/>
<rect width="1" height="1" transform="matrix(-1 0 0 1 12 6)" fill="#940094"/>
<rect width="1" height="1" transform="matrix(-1 0 0 1 15 6)" fill="#940094"/>
<rect width="1" height="1" transform="matrix(-1 0 0 1 15 7)" fill="#940094"/>
<rect width="1" height="1" transform="matrix(-1 0 0 1 5 13)" fill="#290029"/>
<rect width="1" height="1" transform="matrix(-1 0 0 1 7 12)" fill="#290029"/>
<rect width="1" height="1" transform="matrix(-1 0 0 1 17 20)" fill="#940094"/>
<rect width="1" height="1" transform="matrix(-1 0 0 1 17 19)" fill="#940094"/>
<rect width="1" height="1" transform="matrix(-1 0 0 1 17 18)" fill="#940094"/>
<rect width="1" height="1" transform="matrix(-1 0 0 1 16 18)" fill="#940094"/>
<rect width="1" height="1" transform="matrix(-1 0 0 1 16 17)" fill="#940094"/>
<rect width="1" height="1" transform="matrix(-1 0 0 1 15 17)" fill="#940094"/>
<rect width="1" height="1" transform="matrix(-1 0 0 1 14 17)" fill="#940094"/>
<rect width="1" height="1" transform="matrix(-1 0 0 1 13 17)" fill="#940094"/>
<rect width="1" height="1" transform="matrix(-1 0 0 1 12 17)" fill="#940094"/>
<rect width="1" height="1" transform="matrix(-1 0 0 1 11 17)" fill="#940094"/>
<rect width="1" height="1" transform="matrix(-1 0 0 1 10 17)" fill="#940094"/>
<rect width="1" height="1" transform="matrix(-1 0 0 1 9 17)" fill="#940094"/>
<rect width="1" height="1" transform="matrix(-1 0 0 1 8 17)" fill="#940094"/>
<rect width="1" height="1" transform="matrix(-1 0 0 1 8 15)" fill="#940094"/>
<rect width="1" height="1" transform="matrix(-1 0 0 1 9 15)" fill="#940094"/>
<rect width="1" height="1" transform="matrix(-1 0 0 1 10 15)" fill="#940094"/>
<rect width="1" height="1" transform="matrix(-1 0 0 1 11 15)" fill="#940094"/>
<rect width="1" height="1" transform="matrix(-1 0 0 1 13 15)" fill="#940094"/>
<rect width="1" height="1" transform="matrix(-1 0 0 1 14 15)" fill="#940094"/>
<rect width="1" height="1" transform="matrix(-1 0 0 1 15 15)" fill="#940094"/>
<rect width="1" height="1" transform="matrix(-1 0 0 1 15 14)" fill="#940094"/>
<rect width="1" height="1" transform="matrix(-1 0 0 1 14 14)" fill="#940094"/>
<rect width="1" height="1" transform="matrix(-1 0 0 1 13 14)" fill="#940094"/>
<rect width="1" height="1" transform="matrix(-1 0 0 1 11 14)" fill="#940094"/>
<rect width="1" height="1" transform="matrix(-1 0 0 1 10 14)" fill="#940094"/>
<rect width="1" height="1" transform="matrix(-1 0 0 1 9 14)" fill="#940094"/>
<rect width="1" height="1" transform="matrix(-1 0 0 1 8 14)" fill="#940094"/>
<rect width="1" height="1" transform="matrix(-1 0 0 1 8 13)" fill="#940094"/>
<rect width="1" height="1" transform="matrix(-1 0 0 1 8 12)" fill="#940094"/>
<rect width="1" height="1" transform="matrix(-1 0 0 1 9 12)" fill="#940094"/>
<rect width="1" height="1" transform="matrix(-1 0 0 1 8 11)" fill="#940094"/>
<rect width="1" height="1" transform="matrix(-1 0 0 1 7 10)" fill="#940094"/>
<rect width="1" height="1" transform="matrix(-1 0 0 1 6 9)" fill="#940094"/>
<rect width="1" height="1" transform="matrix(-1 0 0 1 6 10)" fill="#940094"/>
<rect width="1" height="1" transform="matrix(-1 0 0 1 5 10)" fill="#940094"/>
<rect width="1" height="1" transform="matrix(-1 0 0 1 4 10)" fill="#940094"/>
<rect width="1" height="1" transform="matrix(-1 0 0 1 4 11)" fill="#940094"/>
<rect width="1" height="1" transform="matrix(-1 0 0 1 3 12)" fill="#940094"/>
<rect width="1" height="1" transform="matrix(-1 0 0 1 3 13)" fill="#940094"/>
<rect width="1" height="1" transform="matrix(-1 0 0 1 4 13)" fill="#940094"/>
<rect width="1" height="1" transform="matrix(-1 0 0 1 4 12)" fill="#940094"/>
<rect width="1" height="1" transform="matrix(-1 0 0 1 5 12)" fill="#940094"/>
<rect width="1" height="1" transform="matrix(-1 0 0 1 5 11)" fill="#940094"/>
<rect width="1" height="1" transform="matrix(-1 0 0 1 6 11)" fill="#940094"/>
<rect width="1" height="1" transform="matrix(-1 0 0 1 7 11)" fill="#940094"/>
<rect width="1" height="1" transform="matrix(-1 0 0 1 6 12)" fill="#940094"/>
<rect width="1" height="1" transform="matrix(-1 0 0 1 9 13)" fill="#940094"/>
<rect width="1" height="1" transform="matrix(-1 0 0 1 10 13)" fill="#940094"/>
<rect width="1" height="1" transform="matrix(-1 0 0 1 11 13)" fill="#940094"/>
<rect width="1" height="1" transform="matrix(-1 0 0 1 13 13)" fill="#940094"/>
<rect width="1" height="1" transform="matrix(-1 0 0 1 14 13)" fill="#940094"/>
<rect width="1" height="1" transform="matrix(-1 0 0 1 15 13)" fill="#940094"/>
<rect width="1" height="1" transform="matrix(-1 0 0 1 15 12)" fill="#940094"/>
<rect width="1" height="1" transform="matrix(-1 0 0 1 16 12)" fill="#940094"/>
<rect width="1" height="1" transform="matrix(-1 0 0 1 16 11)" fill="#940094"/>
<rect width="1" height="1" transform="matrix(-1 0 0 1 17 11)" fill="#940094"/>
<rect width="1" height="1" transform="matrix(-1 0 0 1 18 11)" fill="#940094"/>
<rect width="1" height="1" transform="matrix(-1 0 0 1 19 11)" fill="#940094"/>
<rect width="1" height="1" transform="matrix(-1 0 0 1 20 11)" fill="#940094"/>
<rect width="1" height="1" transform="matrix(-1 0 0 1 20 10)" fill="#940094"/>
<rect width="1" height="1" transform="matrix(-1 0 0 1 19 10)" fill="#940094"/>
<rect width="1" height="1" transform="matrix(-1 0 0 1 18 10)" fill="#940094"/>
<rect width="1" height="1" transform="matrix(-1 0 0 1 17 10)" fill="#940094"/>
<rect width="1" height="1" transform="matrix(-1 0 0 1 18 9)" fill="#940094"/>
<rect width="1" height="1" transform="matrix(-1 0 0 1 19 9)" fill="#940094"/>
<rect width="1" height="1" transform="matrix(-1 0 0 1 20 9)" fill="#940094"/>
<rect width="1" height="1" transform="matrix(-1 0 0 1 7 17)" fill="#940094"/>
<rect width="1" height="1" transform="matrix(-1 0 0 1 15 18)" fill="#940094"/>
<rect width="1" height="1" transform="matrix(-1 0 0 1 14 18)" fill="#940094"/>
<rect width="1" height="1" transform="matrix(-1 0 0 1 13 18)" fill="#940094"/>
<rect width="1" height="1" transform="matrix(-1 0 0 1 11 18)" fill="#940094"/>
<rect width="1" height="1" transform="matrix(-1 0 0 1 10 18)" fill="#940094"/>
<rect width="1" height="1" transform="matrix(-1 0 0 1 10 19)" fill="#940094"/>
<rect width="1" height="1" transform="matrix(-1 0 0 1 9 19)" fill="#940094"/>
<rect width="1" height="1" transform="matrix(-1 0 0 1 9 20)" fill="#940094"/>
<rect width="1" height="1" transform="matrix(-1 0 0 1 8 20)" fill="#940094"/>
<rect width="1" height="1" transform="matrix(-1 0 0 1 7 20)" fill="#940094"/>
<rect width="1" height="1" transform="matrix(-1 0 0 1 6 20)" fill="#940094"/>
<rect width="1" height="1" transform="matrix(-1 0 0 1 8 19)" fill="#940094"/>
<rect width="1" height="1" transform="matrix(-1 0 0 1 7 19)" fill="#940094"/>
<rect width="1" height="1" transform="matrix(-1 0 0 1 6 19)" fill="#940094"/>
<rect width="1" height="1" transform="matrix(-1 0 0 1 9 18)" fill="#940094"/>
<rect width="1" height="1" transform="matrix(-1 0 0 1 8 18)" fill="#940094"/>
<rect width="1" height="1" transform="matrix(-1 0 0 1 7 18)" fill="#940094"/>
<rect width="1" height="1" transform="matrix(-1 0 0 1 6 18)" fill="#940094"/>
<rect width="1" height="1" transform="matrix(-1 0 0 1 16 19)" fill="#940094"/>
<rect width="1" height="1" transform="matrix(-1 0 0 1 15 19)" fill="#940094"/>
<rect width="1" height="1" transform="matrix(-1 0 0 1 14 19)" fill="#940094"/>
<rect width="1" height="1" transform="matrix(-1 0 0 1 16 20)" fill="#940094"/>
<rect width="1" height="1" transform="matrix(-1 0 0 1 15 20)" fill="#940094"/>
<rect width="1" height="1" transform="matrix(-1 0 0 1 15 5)" fill="#00FFFF"/>
<rect width="1" height="1" transform="matrix(-1 0 0 1 14 5)" fill="#00FFFF"/>
<rect width="1" height="1" transform="matrix(-1 0 0 1 13 5)" fill="#00FFFF"/>
<rect width="1" height="1" transform="matrix(-1 0 0 1 13 4)" fill="#00FFFF"/>
<rect width="1" height="1" transform="matrix(-1 0 0 1 12 5)" fill="#00FFFF"/>
<rect width="1" height="1" transform="matrix(-1 0 0 1 12 4)" fill="#00FFFF"/>
<rect width="1" height="1" transform="matrix(-1 0 0 1 11 5)" fill="#00FFFF"/>
<rect width="1" height="1" transform="matrix(-1 0 0 1 11 4)" fill="#00FFFF"/>
<rect width="1" height="1" transform="matrix(-1 0 0 1 10 5)" fill="#00FFFF"/>
<rect width="1" height="1" transform="matrix(-1 0 0 1 10 4)" fill="#00FFFF"/>
<rect width="1" height="1" transform="matrix(-1 0 0 1 9 5)" fill="#00FFFF"/>
<rect width="1" height="1" transform="matrix(-1 0 0 1 7 5)" fill="#00FFFF"/>
<rect width="1" height="1" transform="matrix(-1 0 0 1 7 6)" fill="#00FFFF"/>
<rect width="1" height="1" transform="matrix(-1 0 0 1 8 6)" fill="#00FFFF"/>
<rect width="1" height="1" transform="matrix(-1 0 0 1 8 7)" fill="#00FFFF"/>
<rect width="1" height="1" transform="matrix(-1 0 0 1 9 6)" fill="#00FFFF"/>
<rect width="1" height="1" transform="matrix(-1 0 0 1 9 7)" fill="#00FFFF"/>
<rect width="1" height="1" transform="matrix(-1 0 0 1 10 6)" fill="#00FFFF"/>
<rect width="1" height="1" transform="matrix(-1 0 0 1 10 7)" fill="#00FFFF"/>
<rect width="1" height="1" transform="matrix(-1 0 0 1 11 6)" fill="#00FFFF"/>
<rect width="1" height="1" transform="matrix(-1 0 0 1 11 7)" fill="#00FFFF"/>
<rect width="1" height="1" transform="matrix(-1 0 0 1 13 6)" fill="#00FFFF"/>
<rect width="1" height="1" transform="matrix(-1 0 0 1 13 7)" fill="#00FFFF"/>
<rect width="1" height="1" transform="matrix(-1 0 0 1 14 6)" fill="#00FFFF"/>
<rect width="1" height="1" transform="matrix(-1 0 0 1 14 7)" fill="#00FFFF"/>
<rect width="1" height="1" transform="matrix(-1 0 0 1 16 6)" fill="#00FFFF"/>
<rect width="1" height="1" transform="matrix(-1 0 0 1 16 7)" fill="#00FFFF"/>
<rect width="1" height="1" transform="matrix(-1 0 0 1 16 8)" fill="#00FFFF"/>
<rect width="1" height="1" transform="matrix(-1 0 0 1 15 8)" fill="#00FFFF"/>
<rect width="1" height="1" transform="matrix(-1 0 0 1 14 8)" fill="#00FFFF"/>
<rect width="1" height="1" transform="matrix(-1 0 0 1 13 8)" fill="#00FFFF"/>
<rect width="1" height="1" transform="matrix(-1 0 0 1 12 8)" fill="#00FFFF"/>
<rect width="1" height="1" transform="matrix(-1 0 0 1 11 8)" fill="#00FFFF"/>
<rect width="1" height="1" transform="matrix(-1 0 0 1 9 8)" fill="#00FFFF"/>
<rect width="1" height="1" transform="matrix(-1 0 0 1 9 9)" fill="#00FFFF"/>
<rect width="1" height="1" transform="matrix(-1 0 0 1 10 9)" fill="#00FFFF"/>
<rect width="1" height="1" transform="matrix(-1 0 0 1 10 10)" fill="#00FFFF"/>
<rect width="1" height="1" transform="matrix(-1 0 0 1 11 10)" fill="#00FFFF"/>
<rect width="1" height="1" transform="matrix(-1 0 0 1 12 10)" fill="#00FFFF"/>
<rect width="1" height="1" transform="matrix(-1 0 0 1 13 10)" fill="#00FFFF"/>
<rect width="1" height="1" transform="matrix(-1 0 0 1 14 10)" fill="#00FFFF"/>
<rect width="1" height="1" transform="matrix(-1 0 0 1 15 9)" fill="#00FFFF"/>
<rect width="1" height="1" transform="matrix(-1 0 0 1 21 8)" fill="#00FFFF"/>
<rect width="1" height="1" transform="matrix(-1 0 0 1 21 9)" fill="#00FFFF"/>
<rect width="1" height="1" transform="matrix(-1 0 0 1 21 10)" fill="#00FFFF"/>
<rect width="1" height="1" transform="matrix(-1 0 0 1 21 11)" fill="#00FFFF"/>
<rect width="1" height="1" transform="matrix(-1 0 0 1 22 11)" fill="#00FFFF"/>
<rect width="1" height="1" transform="matrix(-1 0 0 1 22 10)" fill="#00FFFF"/>
<rect width="1" height="1" transform="matrix(-1 0 0 1 22 9)" fill="#00FFFF"/>
<rect width="1" height="1" transform="matrix(-1 0 0 1 5 14)" fill="#00FFFF"/>
<rect width="1" height="1" transform="matrix(-1 0 0 1 4 14)" fill="#00FFFF"/>
<rect width="1" height="1" transform="matrix(-1 0 0 1 3 14)" fill="#00FFFF"/>
<rect width="1" height="1" transform="matrix(-1 0 0 1 3 15)" fill="#00FFFF"/>
<rect width="1" height="1" transform="matrix(-1 0 0 1 4 15)" fill="#00FFFF"/>
<rect width="1" height="1" transform="matrix(-1 0 0 1 5 15)" fill="#00FFFF"/>
<rect width="1" height="1" transform="matrix(-1 0 0 1 9 21)" fill="#00FFFF"/>
<rect width="1" height="1" transform="matrix(-1 0 0 1 8 21)" fill="#00FFFF"/>
<rect width="1" height="1" transform="matrix(-1 0 0 1 7 21)" fill="#00FFFF"/>
<rect width="1" height="1" transform="matrix(-1 0 0 1 6 21)" fill="#00FFFF"/>
<rect width="1" height="1" transform="matrix(-1 0 0 1 5 21)" fill="#00FFFF"/>
<rect width="1" height="1" transform="matrix(-1 0 0 1 4 21)" fill="#00FFFF"/>
<rect width="1" height="1" transform="matrix(-1 0 0 1 3 21)" fill="#00FFFF"/>
<rect width="1" height="1" transform="matrix(-1 0 0 1 2 21)" fill="#00FFFF"/>
<rect width="1" height="1" transform="matrix(-1 0 0 1 4 20)" fill="#00FFFF"/>
<rect width="1" height="1" transform="matrix(-1 0 0 1 5 20)" fill="#00FFFF"/>
<rect width="1" height="1" transform="matrix(-1 0 0 1 15 21)" fill="#00FFFF"/>
<rect width="1" height="1" transform="matrix(-1 0 0 1 16 21)" fill="#00FFFF"/>
<rect width="1" height="1" transform="matrix(-1 0 0 1 17 21)" fill="#00FFFF"/>
<rect width="1" height="1" transform="matrix(-1 0 0 1 18 21)" fill="#00FFFF"/>
<rect width="1" height="1" transform="matrix(-1 0 0 1 19 21)" fill="#00FFFF"/>
<rect width="1" height="1" transform="matrix(-1 0 0 1 20 21)" fill="#00FFFF"/>
<rect width="1" height="1" transform="matrix(-1 0 0 1 21 21)" fill="#00FFFF"/>
<rect width="1" height="1" transform="matrix(-1 0 0 1 19 20)" fill="#00FFFF"/>
<rect width="1" height="1" transform="matrix(-1 0 0 1 18 20)" fill="#00FFFF"/>
<rect width="1" height="1" transform="matrix(-1 0 0 1 8 8)" fill="#00FFFF"/>
<rect width="1" height="1" transform="matrix(-1 0 0 1 18 2)" fill="#A8FFFF"/>
<rect width="1" height="1" transform="matrix(-1 0 0 1 17 2)" fill="#A8FFFF"/>
<rect width="1" height="1" transform="matrix(-1 0 0 1 17 3)" fill="#A8FFFF"/>
<rect width="1" height="1" transform="matrix(-1 0 0 1 16 3)" fill="#A8FFFF"/>
<rect width="1" height="1" transform="matrix(-1 0 0 1 15 3)" fill="#A8FFFF"/>
<rect width="1" height="1" transform="matrix(-1 0 0 1 14 3)" fill="#A8FFFF"/>
<rect width="1" height="1" transform="matrix(-1 0 0 1 13 3)" fill="#A8FFFF"/>
<rect width="1" height="1" transform="matrix(-1 0 0 1 12 3)" fill="#A8FFFF"/>
<rect width="1" height="1" transform="matrix(-1 0 0 1 11 3)" fill="#A8FFFF"/>
<rect width="1" height="1" transform="matrix(-1 0 0 1 10 3)" fill="#A8FFFF"/>
<rect width="1" height="1" transform="matrix(-1 0 0 1 9 3)" fill="#A8FFFF"/>
<rect width="1" height="1" transform="matrix(-1 0 0 1 8 4)" fill="#A8FFFF"/>
<rect width="1" height="1" transform="matrix(-1 0 0 1 8 5)" fill="#A8FFFF"/>
<rect width="1" height="1" transform="matrix(-1 0 0 1 9 4)" fill="#A8FFFF"/>
<rect width="1" height="1" transform="matrix(-1 0 0 1 14 4)" fill="#A8FFFF"/>
<rect width="1" height="1" transform="matrix(-1 0 0 1 15 4)" fill="#A8FFFF"/>
<rect width="1" height="1" transform="matrix(-1 0 0 1 16 4)" fill="#A8FFFF"/>
<rect width="1" height="1" transform="matrix(-1 0 0 1 16 5)" fill="#A8FFFF"/>
<rect width="1" height="1" transform="matrix(-1 0 0 1 17 4)" fill="#A8FFFF"/>
<rect width="1" height="1" transform="matrix(-1 0 0 1 17 9)" fill="#A8FFFF"/>
<rect width="1" height="1" transform="matrix(-1 0 0 1 16 10)" fill="#A8FFFF"/>
<rect width="1" height="1" transform="matrix(-1 0 0 1 15 11)" fill="#A8FFFF"/>
<rect width="1" height="1" transform="matrix(-1 0 0 1 14 12)" fill="#A8FFFF"/>
<rect width="1" height="1" transform="matrix(-1 0 0 1 13 12)" fill="#A8FFFF"/>
<rect width="1" height="1" transform="matrix(-1 0 0 1 12 12)" fill="#A8FFFF"/>
<rect width="1" height="1" transform="matrix(-1 0 0 1 12 13)" fill="#A8FFFF"/>
<rect width="1" height="1" transform="matrix(-1 0 0 1 12 14)" fill="#A8FFFF"/>
<rect width="1" height="1" transform="matrix(-1 0 0 1 12 15)" fill="#A8FFFF"/>
<rect width="1" height="1" transform="matrix(-1 0 0 1 12 16)" fill="#A8FFFF"/>
<rect width="1" height="1" transform="matrix(-1 0 0 1 11 16)" fill="#A8FFFF"/>
<rect width="1" height="1" transform="matrix(-1 0 0 1 10 16)" fill="#A8FFFF"/>
<rect width="1" height="1" transform="matrix(-1 0 0 1 9 16)" fill="#A8FFFF"/>
<rect width="1" height="1" transform="matrix(-1 0 0 1 8 16)" fill="#A8FFFF"/>
<rect width="1" height="1" transform="matrix(-1 0 0 1 13 16)" fill="#A8FFFF"/>
<rect width="1" height="1" transform="matrix(-1 0 0 1 14 16)" fill="#A8FFFF"/>
<rect width="1" height="1" transform="matrix(-1 0 0 1 15 16)" fill="#A8FFFF"/>
<rect width="1" height="1" transform="matrix(-1 0 0 1 11 12)" fill="#A8FFFF"/>
<rect width="1" height="1" transform="matrix(-1 0 0 1 10 12)" fill="#A8FFFF"/>
<rect width="1" height="1" transform="matrix(-1 0 0 1 9 11)" fill="#A8FFFF"/>
<rect width="1" height="1" transform="matrix(-1 0 0 1 8 10)" fill="#A8FFFF"/>
<rect width="1" height="1" transform="matrix(-1 0 0 1 7 9)" fill="#A8FFFF"/>
<rect width="1" height="1" transform="matrix(-1 0 0 1 15 2)" fill="#A8FFFF"/>
<rect width="1" height="1" transform="matrix(-1 0 0 1 14 2)" fill="#A8FFFF"/>
<rect width="1" height="1" transform="matrix(-1 0 0 1 13 2)" fill="#A8FFFF"/>
<rect width="1" height="1" transform="matrix(-1 0 0 1 12 2)" fill="#A8FFFF"/>
<rect width="1" height="1" transform="matrix(-1 0 0 1 11 2)" fill="#A8FFFF"/>
<rect width="1" height="1" transform="matrix(-1 0 0 1 10 2)" fill="#A8FFFF"/>
<rect width="1" height="1" transform="matrix(-1 0 0 1 9 2)" fill="#A8FFFF"/>
<rect width="1" height="1" transform="matrix(-1 0 0 1 8 3)" fill="#A8FFFF"/>
<rect width="1" height="1" transform="matrix(-1 0 0 1 14 1)" fill="#A8FFFF"/>
<rect width="1" height="1" transform="matrix(-1 0 0 1 13 1)" fill="#A8FFFF"/>
<rect width="1" height="1" transform="matrix(-1 0 0 1 12 1)" fill="#A8FFFF"/>
<rect width="1" height="1" transform="matrix(-1 0 0 1 11 1)" fill="#A8FFFF"/>
<rect width="1" height="1" transform="matrix(-1 0 0 1 10 1)" fill="#A8FFFF"/>
<rect width="1" height="1" transform="matrix(-1 0 0 1 9 1)" fill="#A8FFFF"/>
<rect width="1" height="1" transform="matrix(-1 0 0 1 8 2)" fill="#A8FFFF"/>
</svg>
